<svg xmlns="http://www.w3.org/2000/svg" width="400" height="400" viewBox="0 0 400 400">
<g>
<path d="M 157.16 293.59 C150.37,294.90 135.85,295.28 130.00,294.31 C114.19,291.69 98.20,281.00 90.78,268.10 C88.31,263.80 87.58,261.20 87.21,255.35 C86.63,246.31 88.16,240.42 92.24,236.06 C97.78,230.13 105.22,228.44 111.30,231.73 L 114.50 233.47 L 108.85 233.99 C102.52,234.57 99.53,236.59 97.33,241.79 C95.46,246.22 96.96,251.60 101.23,255.72 C109.93,264.12 119.89,262.87 137.18,251.22 C147.26,244.43 154.84,240.26 161.15,238.04 L 166.50 236.16 L 167.00 213.33 L 167.50 190.50 L 200.75 190.24 L 234.00 189.97 L 234.00 213.08 C234.00,231.08 234.00,235.53 235.92,236.64 C236.56,237.00 237.40,237.00 238.51,237.00 L 238.55 237.00 C241.19,237.00 251.54,242.29 262.00,249.00 C275.95,257.93 280.19,260.00 286.06,260.69 C301.62,262.54 312.20,246.53 301.84,236.85 C299.44,234.61 297.84,234.00 294.39,234.00 C289.43,234.00 288.63,232.48 292.75,230.89 C296.95,229.27 303.53,230.40 307.50,233.43 C313.04,237.66 315.39,243.16 315.43,252.05 C315.47,258.65 315.05,260.46 312.06,266.55 C305.52,279.90 291.97,289.87 275.35,293.57 C265.66,295.72 249.92,295.06 238.50,292.02 C227.18,289.01 213.29,282.03 206.78,276.08 L 201.32 271.09 L 195.99 276.01 C187.29,284.05 172.89,290.57 157.16,293.59 ZM 113.36 175.18 L 106.21 182.00 L 98.33 182.00 C89.87,182.00 86.00,180.45 86.00,177.07 C86.00,174.99 87.95,173.07 139.07,124.90 C196.00,71.27 199.59,68.00 201.62,68.00 C202.66,68.00 207.33,70.74 212.00,74.09 C225.93,84.07 252.86,102.00 253.93,102.00 C254.50,102.00 255.05,98.02 255.21,92.75 L 255.50 83.50 L 265.92 83.21 C273.58,83.00 276.55,83.27 277.15,84.21 C277.60,84.92 277.93,92.70 277.88,101.50 C277.82,110.30 277.83,117.98 277.89,118.56 C277.95,119.15 291.05,132.11 307.00,147.36 C325.03,164.61 336.00,175.81 336.00,176.99 C336.00,181.23 332.67,182.00 314.23,182.00 L 296.91 182.00 L 291.71 177.25 C288.85,174.64 277.73,164.17 267.00,154.00 C229.36,118.29 202.85,93.50 201.97,93.18 C201.25,92.92 144.32,145.60 113.36,175.18 ZM 92.78 176.44 C93.08,176.75 96.00,177.00 99.26,177.00 L 105.18 177.00 L 116.84 165.75 C140.36,143.05 200.18,87.49 201.39,87.21 C202.08,87.05 223.94,107.08 249.97,131.71 L 297.30 176.50 L 302.80 176.80 C309.90,177.20 311.00,176.02 306.81,172.50 C303.86,170.02 233.06,102.65 210.77,81.12 L 202.05 72.68 L 196.77 77.54 C189.56,84.19 124.29,145.58 115.00,154.45 C110.88,158.39 104.06,164.82 99.86,168.75 C95.66,172.68 92.47,176.14 92.78,176.44 ZM 198.38 244.85 L 201.25 247.87 L 204.38 244.58 C208.75,239.96 215.14,236.97 222.35,236.18 L 228.50 235.50 L 229.04 195.00 L 171.96 195.00 L 172.50 235.50 L 179.57 236.05 C187.32,236.66 193.20,239.41 198.38,244.85 ZM 264.25 113.07 C266.59,115.19 269.06,116.94 269.75,116.96 C270.69,116.99 271.00,113.46 271.00,102.50 L 271.00 88.00 L 260.00 88.00 L 260.00 109.23 ZM 201.00 169.00 L 193.17 169.00 C188.86,169.00 185.03,168.70 184.67,168.33 C184.30,167.97 184.00,164.37 184.00,160.33 L 184.00 153.00 L 191.04 153.00 C196.28,153.00 198.76,153.00 199.94,154.24 C201.00,155.36 201.00,157.48 201.00,161.51 L 201.00 169.00 ZM 221.50 153.50 L 221.50 168.50 L 213.25 168.79 L 205.00 169.08 L 205.00 154.09 L 208.25 153.48 C210.04,153.15 213.75,153.02 216.50,153.19 ZM 221.59 148.62 C221.20,149.64 218.95,150.00 213.03,150.00 L 205.00 150.00 L 205.00 141.00 C205.00,133.56 205.27,132.00 206.54,132.00 C208.73,132.00 215.18,135.44 217.21,137.68 C219.57,140.29 222.24,146.94 221.59,148.62 ZM 200.79 140.75 L 200.50 149.50 L 192.25 149.79 C184.60,150.06 184.00,149.94 184.00,148.11 C184.00,142.52 188.24,136.78 194.50,133.89 C201.03,130.87 201.11,130.96 200.79,140.75 Z" fill="rgb(2,2,2)"/>
</g>
</svg>